<svg xmlns="http://www.w3.org/2000/svg" xmlns:xlink="http://www.w3.org/1999/xlink" width="91" zoomAndPan="magnify" viewBox="0 0 68.25 65.249999" height="87" preserveAspectRatio="xMidYMid meet" version="1.0"><defs><clipPath id="29a2d08437"><path d="M 3.714844 10.761719 L 63 10.761719 L 63 44.871094 L 3.714844 44.871094 Z M 3.714844 10.761719 " clip-rule="nonzero"/></clipPath></defs><g clip-path="url(#29a2d08437)"><path fill="#000000" d="M 15.058594 10.855469 C 14.347656 10.855469 13.773438 11.421875 13.773438 12.128906 L 13.773438 34.804688 C 13.773438 35.1875 13.941406 35.53125 14.210938 35.761719 L 13.8125 35.761719 C 13.800781 35.761719 13.789062 35.761719 13.773438 35.761719 C 13.761719 35.761719 13.75 35.761719 13.734375 35.761719 C 13.714844 35.761719 13.695312 35.773438 13.675781 35.773438 C 13.675781 35.773438 13.675781 35.773438 13.664062 35.773438 C 13.652344 35.773438 13.648438 35.773438 13.640625 35.789062 C 13.601562 35.800781 13.5625 35.824219 13.53125 35.855469 C 13.53125 35.855469 13.53125 35.855469 13.519531 35.855469 L 3.859375 43.179688 C 3.839844 43.191406 3.820312 43.207031 3.804688 43.222656 C 3.792969 43.234375 3.789062 43.238281 3.78125 43.246094 C 3.78125 43.246094 3.769531 43.257812 3.769531 43.257812 C 3.769531 43.257812 3.757812 43.269531 3.757812 43.273438 C 3.746094 43.285156 3.746094 43.289062 3.742188 43.300781 C 3.742188 43.3125 3.730469 43.316406 3.730469 43.320312 L 3.730469 43.332031 C 3.730469 43.332031 3.730469 43.34375 3.71875 43.347656 C 3.71875 43.347656 3.71875 43.359375 3.71875 43.359375 C 3.71875 43.359375 3.71875 43.371094 3.71875 43.375 C 3.71875 43.375 3.71875 43.386719 3.71875 43.386719 C 3.71875 43.386719 3.71875 43.398438 3.71875 43.398438 C 3.707031 43.445312 3.71875 43.496094 3.734375 43.546875 C 3.769531 43.648438 3.851562 43.722656 3.949219 43.75 L 6.078125 44.753906 C 6.121094 44.777344 6.167969 44.785156 6.214844 44.785156 L 60.484375 44.785156 C 60.535156 44.785156 60.582031 44.773438 60.625 44.753906 L 62.789062 43.734375 C 62.925781 43.667969 63 43.519531 62.964844 43.375 C 62.945312 43.277344 62.875 43.199219 62.789062 43.15625 L 53.117188 35.820312 C 53.058594 35.777344 52.992188 35.753906 52.917969 35.757812 L 52.484375 35.757812 C 52.753906 35.523438 52.921875 35.179688 52.921875 34.796875 L 52.921875 12.121094 C 52.921875 11.414062 52.347656 10.847656 51.636719 10.847656 Z M 15.4375 12.238281 L 51.269531 12.238281 L 51.269531 34.695312 L 15.4375 34.695312 Z M 33.351562 14.929688 C 33.171875 14.929688 32.996094 14.941406 32.816406 14.949219 C 32.816406 14.949219 32.804688 14.949219 32.804688 14.949219 C 32.675781 14.960938 32.546875 14.964844 32.421875 14.980469 C 32.40625 14.980469 32.40625 14.980469 32.394531 14.980469 C 30.941406 15.140625 29.597656 15.660156 28.453125 16.449219 C 28.390625 16.488281 28.328125 16.53125 28.269531 16.574219 C 27.851562 16.878906 27.460938 17.21875 27.105469 17.589844 C 27.074219 17.621094 27.050781 17.652344 27.019531 17.683594 C 25.609375 19.203125 24.742188 21.234375 24.742188 23.464844 C 24.742188 25.738281 25.644531 27.804688 27.105469 29.335938 C 27.144531 29.375 27.1875 29.414062 27.226562 29.453125 C 28.632812 30.863281 30.527344 31.796875 32.636719 31.96875 C 32.648438 31.96875 32.652344 31.96875 32.660156 31.96875 C 32.886719 31.984375 33.121094 31.996094 33.355469 31.996094 C 33.539062 31.996094 33.722656 31.984375 33.902344 31.980469 C 33.902344 31.980469 33.914062 31.980469 33.914062 31.980469 C 33.960938 31.980469 34.007812 31.96875 34.054688 31.96875 C 34.066406 31.96875 34.070312 31.96875 34.078125 31.96875 C 35.699219 31.832031 37.199219 31.25 38.441406 30.347656 C 38.503906 30.300781 38.566406 30.25 38.628906 30.203125 C 38.929688 29.96875 39.214844 29.71875 39.484375 29.449219 C 39.523438 29.410156 39.566406 29.371094 39.605469 29.332031 C 41.066406 27.800781 41.96875 25.734375 41.96875 23.460938 C 41.96875 21.234375 41.105469 19.203125 39.691406 17.683594 C 39.664062 17.648438 39.636719 17.617188 39.605469 17.585938 C 38.242188 16.160156 36.390625 15.203125 34.316406 14.972656 C 34.304688 14.972656 34.300781 14.972656 34.292969 14.972656 C 33.984375 14.941406 33.675781 14.925781 33.359375 14.925781 Z M 35.175781 16.089844 C 35.339844 16.089844 35.503906 16.105469 35.660156 16.128906 C 35.824219 16.195312 35.964844 16.265625 36.082031 16.335938 C 36.277344 16.457031 36.398438 16.585938 36.453125 16.679688 C 36.511719 16.773438 36.515625 16.820312 36.488281 16.898438 C 36.476562 16.941406 36.445312 16.992188 36.398438 17.046875 C 35.855469 16.671875 35.289062 16.363281 34.710938 16.121094 C 34.867188 16.097656 35.023438 16.089844 35.175781 16.089844 Z M 31.738281 16.304688 C 31.875 16.304688 32.007812 16.304688 32.144531 16.320312 C 31.695312 16.628906 31.253906 17.003906 30.835938 17.433594 C 30.460938 17.242188 30.253906 17.027344 30.214844 16.898438 C 30.191406 16.820312 30.199219 16.773438 30.253906 16.679688 C 30.289062 16.613281 30.359375 16.535156 30.460938 16.453125 C 30.875 16.355469 31.300781 16.304688 31.742188 16.304688 Z M 33.105469 16.679688 C 33.195312 16.984375 33.28125 17.347656 33.363281 17.761719 C 33.375 17.808594 33.382812 17.863281 33.394531 17.914062 C 33.382812 17.914062 33.367188 17.914062 33.351562 17.914062 C 32.75 17.914062 32.179688 17.84375 31.695312 17.730469 C 32.160156 17.292969 32.632812 16.941406 33.105469 16.679688 Z M 33.964844 16.703125 C 34.535156 16.90625 35.105469 17.183594 35.652344 17.53125 C 35.625 17.542969 35.59375 17.554688 35.5625 17.566406 C 35.191406 17.703125 34.730469 17.808594 34.222656 17.863281 C 34.203125 17.773438 34.1875 17.6875 34.167969 17.601562 C 34.101562 17.273438 34.035156 16.976562 33.964844 16.703125 Z M 37.316406 16.816406 C 37.941406 17.183594 38.511719 17.632812 39.007812 18.152344 C 39.230469 18.386719 39.328125 18.59375 39.351562 18.78125 C 39.375 18.96875 39.332031 19.152344 39.191406 19.363281 C 39.136719 19.445312 39.070312 19.527344 38.988281 19.609375 C 38.953125 19.558594 38.914062 19.507812 38.878906 19.457031 C 38.339844 18.722656 37.726562 18.082031 37.066406 17.542969 C 37.160156 17.421875 37.230469 17.285156 37.277344 17.132812 C 37.308594 17.027344 37.320312 16.921875 37.320312 16.8125 Z M 29.390625 16.847656 C 29.390625 16.941406 29.402344 17.039062 29.429688 17.132812 C 29.554688 17.539062 29.863281 17.835938 30.269531 18.0625 C 29.703125 18.742188 29.210938 19.503906 28.792969 20.316406 C 28.152344 20.015625 27.722656 19.675781 27.515625 19.367188 C 27.378906 19.15625 27.335938 18.972656 27.359375 18.785156 C 27.382812 18.597656 27.476562 18.386719 27.699219 18.15625 C 28.023438 17.816406 28.375 17.511719 28.753906 17.234375 C 28.957031 17.085938 29.167969 16.957031 29.390625 16.84375 Z M 36.417969 18.074219 C 37.070312 18.589844 37.679688 19.214844 38.214844 19.9375 C 38.253906 19.992188 38.292969 20.042969 38.332031 20.097656 C 38.003906 20.289062 37.59375 20.46875 37.109375 20.625 C 36.382812 20.855469 35.546875 21.011719 34.675781 21.089844 C 34.585938 20.214844 34.480469 19.398438 34.359375 18.667969 C 34.910156 18.605469 35.414062 18.488281 35.847656 18.328125 C 36.050781 18.253906 36.242188 18.167969 36.417969 18.074219 Z M 31.058594 18.398438 C 31.710938 18.609375 32.503906 18.726562 33.351562 18.726562 C 33.414062 18.726562 33.476562 18.726562 33.539062 18.726562 C 33.65625 19.445312 33.765625 20.257812 33.855469 21.140625 C 32.363281 21.191406 30.828125 21.019531 29.597656 20.625 C 29.585938 20.625 29.574219 20.613281 29.566406 20.613281 C 29.984375 19.804688 30.488281 19.050781 31.058594 18.398438 Z M 26.664062 19.5 C 26.710938 19.609375 26.765625 19.710938 26.832031 19.8125 C 27.160156 20.308594 27.707031 20.71875 28.445312 21.054688 C 28.070312 21.910156 27.785156 22.804688 27.601562 23.707031 C 27.121094 23.484375 26.726562 23.238281 26.433594 22.984375 C 25.859375 22.492188 25.683594 22.039062 25.800781 21.570312 C 25.988281 20.832031 26.285156 20.136719 26.667969 19.503906 Z M 40.039062 19.5 C 40.425781 20.136719 40.71875 20.832031 40.90625 21.570312 C 41.007812 21.964844 40.894531 22.347656 40.515625 22.753906 C 40.28125 21.925781 39.925781 21.101562 39.445312 20.308594 C 39.617188 20.152344 39.761719 19.988281 39.878906 19.8125 C 39.945312 19.710938 39.996094 19.609375 40.042969 19.5 Z M 38.777344 20.789062 C 39.265625 21.613281 39.609375 22.472656 39.816406 23.320312 C 39.242188 23.6875 38.453125 24.023438 37.488281 24.273438 C 36.695312 24.484375 35.832031 24.625 34.9375 24.703125 C 34.917969 24.269531 34.898438 23.824219 34.867188 23.371094 C 34.835938 22.871094 34.796875 22.382812 34.753906 21.90625 C 35.675781 21.820312 36.5625 21.652344 37.363281 21.398438 C 37.90625 21.226562 38.378906 21.023438 38.777344 20.789062 Z M 29.210938 21.355469 C 29.257812 21.371094 29.300781 21.382812 29.34375 21.398438 C 30.710938 21.832031 32.34375 22.019531 33.9375 21.960938 C 33.980469 22.433594 34.015625 22.921875 34.050781 23.421875 C 34.078125 23.875 34.101562 24.320312 34.117188 24.753906 C 32.429688 24.820312 30.695312 24.664062 29.21875 24.273438 C 28.921875 24.195312 28.640625 24.113281 28.378906 24.019531 C 28.550781 23.117188 28.835938 22.214844 29.214844 21.355469 Z M 25.566406 23.273438 C 25.667969 23.386719 25.773438 23.496094 25.894531 23.597656 C 26.308594 23.953125 26.835938 24.269531 27.464844 24.539062 C 27.414062 24.914062 27.382812 25.285156 27.371094 25.65625 C 27.359375 26.082031 27.371094 26.492188 27.410156 26.890625 C 26.492188 26.425781 25.933594 25.867188 25.804688 25.363281 C 25.648438 24.757812 25.566406 24.121094 25.566406 23.46875 C 25.566406 23.402344 25.566406 23.339844 25.566406 23.273438 Z M 41.140625 23.273438 C 41.140625 23.339844 41.140625 23.402344 41.140625 23.46875 C 41.140625 24.121094 41.058594 24.757812 40.90625 25.363281 C 40.894531 25.410156 40.875 25.457031 40.855469 25.503906 C 40.855469 25.488281 40.855469 25.472656 40.855469 25.457031 C 40.878906 24.871094 40.832031 24.273438 40.722656 23.671875 C 40.753906 23.648438 40.78125 23.625 40.808594 23.601562 C 40.929688 23.496094 41.039062 23.386719 41.136719 23.277344 Z M 39.976562 24.179688 C 40.03125 24.601562 40.054688 25.019531 40.039062 25.429688 C 40.027344 25.808594 39.984375 26.175781 39.914062 26.53125 C 39.546875 26.78125 39.09375 27.015625 38.550781 27.21875 C 37.566406 27.589844 36.335938 27.859375 34.972656 27.980469 C 34.992188 27.234375 34.988281 26.402344 34.972656 25.519531 C 35.921875 25.4375 36.847656 25.285156 37.703125 25.0625 C 38.59375 24.828125 39.359375 24.53125 39.980469 24.179688 Z M 28.253906 24.839844 C 28.496094 24.917969 28.746094 24.992188 29.007812 25.0625 C 30.582031 25.472656 32.386719 25.644531 34.148438 25.570312 C 34.171875 26.464844 34.171875 27.292969 34.148438 28.035156 C 33.886719 28.046875 33.621094 28.050781 33.351562 28.050781 C 31.414062 28.050781 29.628906 27.75 28.277344 27.265625 C 28.203125 26.777344 28.171875 26.246094 28.191406 25.679688 C 28.203125 25.402344 28.222656 25.121094 28.253906 24.839844 Z M 26.65625 27.421875 C 26.933594 27.578125 27.234375 27.722656 27.558594 27.859375 C 27.644531 28.246094 27.753906 28.617188 27.894531 28.960938 C 27.824219 28.902344 27.757812 28.84375 27.699219 28.78125 C 27.304688 28.367188 26.957031 27.910156 26.660156 27.417969 Z M 39.558594 27.675781 C 39.332031 28.199219 39.03125 28.671875 38.652344 29.082031 C 37.863281 29.632812 36.449219 30.089844 34.804688 30.265625 C 34.847656 29.945312 34.882812 29.585938 34.914062 29.183594 C 34.925781 29.0625 34.929688 28.929688 34.9375 28.800781 C 36.40625 28.679688 37.742188 28.394531 38.84375 27.980469 C 39.09375 27.886719 39.332031 27.785156 39.554688 27.675781 Z M 28.492188 28.191406 C 29.871094 28.621094 31.550781 28.863281 33.351562 28.863281 C 33.609375 28.863281 33.863281 28.863281 34.113281 28.847656 C 34.101562 28.945312 34.101562 29.035156 34.09375 29.128906 C 34.0625 29.589844 34.015625 29.996094 33.964844 30.328125 C 33.761719 30.339844 33.558594 30.34375 33.351562 30.34375 C 31.785156 30.34375 30.316406 30.074219 29.226562 29.667969 C 28.917969 29.265625 28.667969 28.769531 28.492188 28.195312 Z M 32.3125 31.121094 C 32.652344 31.144531 33 31.15625 33.351562 31.15625 C 33.488281 31.15625 33.621094 31.15625 33.757812 31.15625 C 33.746094 31.167969 33.746094 31.175781 33.742188 31.1875 C 33.332031 31.207031 32.910156 31.199219 32.507812 31.152344 C 32.441406 31.140625 32.378906 31.136719 32.3125 31.128906 Z M 13.878906 36.402344 L 52.828125 36.402344 L 61.703125 43.132812 L 5.003906 43.132812 Z M 15.21875 36.773438 L 14.558594 37.277344 L 52.148438 37.277344 L 51.488281 36.773438 Z M 13.863281 37.800781 L 13.203125 38.304688 L 53.503906 38.304688 L 52.84375 37.800781 Z M 12.507812 38.828125 L 11.847656 39.332031 L 54.859375 39.332031 L 54.199219 38.828125 Z M 11.152344 39.855469 L 10.492188 40.359375 L 56.214844 40.359375 L 55.554688 39.855469 Z M 28.835938 41.042969 L 26.59375 42.742188 L 40.117188 42.742188 L 37.871094 41.042969 Z M 5.480469 43.773438 L 61.222656 43.773438 L 60.414062 44.152344 L 6.292969 44.152344 Z M 5.480469 43.773438 " fill-opacity="1" fill-rule="nonzero"/></g></svg>