<svg xmlns="http://www.w3.org/2000/svg" xmlns:xlink="http://www.w3.org/1999/xlink" width="20" zoomAndPan="magnify" viewBox="0 0 27.75 28.499999" height="" preserveAspectRatio="xMidYMid meet" version="1.0"><defs><clipPath id="bff84b779a"><path d="M 0.117188 0 L 27.386719 0 L 27.386719 28.007812 L 0.117188 28.007812 Z M 0.117188 0 " clip-rule="nonzero"/></clipPath><clipPath id="06b2e1fe08"><path d="M 0.40625 0.425781 L 27.296875 0.425781 L 27.296875 27.3125 L 0.40625 27.3125 Z M 0.40625 0.425781 " clip-rule="nonzero"/></clipPath><clipPath id="c06ebd639c"><path d="M 13.851562 0.425781 C 6.425781 0.425781 0.40625 6.445312 0.40625 13.867188 C 0.40625 21.292969 6.425781 27.3125 13.851562 27.3125 C 21.277344 27.3125 27.296875 21.292969 27.296875 13.867188 C 27.296875 6.445312 21.277344 0.425781 13.851562 0.425781 Z M 13.851562 0.425781 " clip-rule="nonzero"/></clipPath><clipPath id="c34036e2b6"><path d="M 5.675781 6.355469 L 21 6.355469 L 21 21.355469 L 5.675781 21.355469 Z M 5.675781 6.355469 " clip-rule="nonzero"/></clipPath><clipPath id="83aaa5b92b"><path d="M 8 6.355469 L 21.789062 6.355469 L 21.789062 19 L 8 19 Z M 8 6.355469 " clip-rule="nonzero"/></clipPath></defs><g clip-path="url(#bff84b779a)"><path fill="#ffffff" d="M 0.117188 0 L 27.386719 0 L 27.386719 28.007812 L 0.117188 28.007812 Z M 0.117188 0 " fill-opacity="1" fill-rule="nonzero"/></g><g clip-path="url(#06b2e1fe08)"><g clip-path="url(#c06ebd639c)"><path fill="#129e4a" d="M 0.40625 0.425781 L 27.296875 0.425781 L 27.296875 27.3125 L 0.40625 27.3125 Z M 0.40625 0.425781 " fill-opacity="1" fill-rule="nonzero"/></g></g><g clip-path="url(#c34036e2b6)"><path fill="#ffffff" d="M 20.078125 11.207031 L 18.859375 12.429688 C 18.960938 12.820312 19.019531 13.214844 19.042969 13.617188 C 19.0625 14.019531 19.042969 14.417969 18.980469 14.816406 C 18.921875 15.214844 18.820312 15.601562 18.679688 15.980469 C 18.539062 16.355469 18.363281 16.714844 18.148438 17.058594 C 17.9375 17.398438 17.691406 17.714844 17.414062 18.007812 C 17.136719 18.296875 16.832031 18.558594 16.5 18.785156 C 16.167969 19.015625 15.816406 19.210938 15.449219 19.367188 C 15.078125 19.523438 14.695312 19.644531 14.300781 19.722656 C 13.90625 19.800781 13.507812 19.839844 13.105469 19.839844 C 12.699219 19.835938 12.304688 19.792969 11.910156 19.710938 C 11.515625 19.628906 11.132812 19.503906 10.765625 19.34375 C 10.394531 19.183594 10.046875 18.984375 9.71875 18.753906 C 9.390625 18.519531 9.085938 18.257812 8.8125 17.964844 C 8.539062 17.671875 8.296875 17.351562 8.085938 17.007812 C 7.875 16.664062 7.703125 16.304688 7.566406 15.925781 C 7.429688 15.546875 7.332031 15.15625 7.277344 14.757812 C 7.195312 14.191406 7.199219 13.621094 7.28125 13.054688 C 7.316406 12.808594 7.367188 12.5625 7.433594 12.324219 C 7.503906 12.082031 7.582031 11.847656 7.679688 11.617188 C 7.777344 11.390625 7.886719 11.167969 8.015625 10.949219 C 8.140625 10.734375 8.277344 10.527344 8.429688 10.328125 C 8.578125 10.132812 8.742188 9.941406 8.917969 9.765625 C 9.09375 9.589844 9.277344 9.421875 9.472656 9.269531 C 9.671875 9.113281 9.875 8.972656 10.089844 8.84375 C 10.300781 8.714844 10.523438 8.601562 10.753906 8.5 C 10.980469 8.402344 11.214844 8.316406 11.453125 8.246094 C 11.691406 8.175781 11.933594 8.117188 12.179688 8.078125 C 12.425781 8.039062 12.675781 8.015625 12.925781 8.003906 C 13.171875 7.996094 13.421875 8.003906 13.671875 8.027344 C 13.917969 8.050781 14.164062 8.085938 14.410156 8.140625 C 14.652344 8.195312 14.890625 8.265625 15.125 8.347656 C 15.359375 8.433594 15.589844 8.53125 15.8125 8.644531 C 16.035156 8.757812 16.246094 8.882812 16.453125 9.023438 L 17.558594 7.917969 C 17.085938 7.570312 16.578125 7.28125 16.035156 7.050781 C 15.113281 6.660156 14.136719 6.464844 13.132812 6.464844 C 12.125 6.464844 11.148438 6.660156 10.230469 7.050781 C 9.335938 7.429688 8.546875 7.960938 7.859375 8.648438 C 7.175781 9.332031 6.640625 10.125 6.261719 11.015625 C 5.875 11.9375 5.675781 12.914062 5.675781 13.917969 C 5.675781 14.925781 5.875 15.902344 6.261719 16.820312 C 6.640625 17.714844 7.175781 18.503906 7.859375 19.191406 C 8.546875 19.878906 9.335938 20.410156 10.230469 20.789062 C 11.148438 21.175781 12.125 21.375 13.132812 21.375 C 14.136719 21.375 15.113281 21.175781 16.035156 20.789062 C 16.925781 20.410156 17.71875 19.878906 18.402344 19.191406 C 19.089844 18.503906 19.621094 17.714844 20 16.820312 C 20.390625 15.902344 20.585938 14.925781 20.585938 13.917969 C 20.585938 12.984375 20.417969 12.070312 20.078125 11.207031 Z M 20.078125 11.207031 " fill-opacity="1" fill-rule="nonzero"/></g><g clip-path="url(#83aaa5b92b)"><path fill="#ffffff" d="M 11.808594 18.023438 L 8.421875 14.636719 L 9.875 13.183594 L 11.808594 15.121094 L 20.574219 6.355469 L 22.027344 7.808594 Z M 11.808594 18.023438 " fill-opacity="1" fill-rule="nonzero"/></g></svg>