<?xml version="1.0" encoding="UTF-8" standalone="no" ?>
<!DOCTYPE svg PUBLIC "-//W3C//DTD SVG 1.1//EN" "http://www.w3.org/Graphics/SVG/1.1/DTD/svg11.dtd">
<svg xmlns="http://www.w3.org/2000/svg" xmlns:xlink="http://www.w3.org/1999/xlink" version="1.1" width="20" height="20" viewBox="0 0 24 24" xml:space="preserve">
<desc>Created with Fabric.js 5.3.0</desc>
<defs>
</defs>
<g transform="matrix(1 0 0 1 12 12)" id="GcaWUakfFpe2MonGrp5UY"  >
<path style="stroke: none; stroke-width: 1; stroke-dasharray: none; stroke-linecap: butt; stroke-dashoffset: 0; stroke-linejoin: miter; stroke-miterlimit: 4; fill: rgb(22,111,97); fill-rule: evenodd; opacity: 1;"  transform=" translate(-12, -12)" d="M 2.25 12 C 2.25 6.615 6.615 2.25 12 2.25 C 17.384999999999998 2.25 21.75 6.615 21.75 12 C 21.75 17.384999999999998 17.384999999999998 21.75 12 21.75 C 6.615000000000002 21.75 2.25 17.385 2.25 12 z M 15.61 10.186 C 15.773331039338943 9.96836496694081 15.805972962161587 9.67933728450592 15.695294945598251 9.430756487428148 C 15.584616929034915 9.182175690350377 15.347982709298458 9.013040411981368 15.076958121239842 8.988797708050663 C 14.805933533181227 8.964555004119958 14.543038307460385 9.089008194647283 14.389999999999999 9.314 L 11.153999999999998 13.844000000000001 L 9.53 12.22 C 9.234490245515518 11.944641139570878 8.773990278005257 11.952766124082645 8.48837820104395 12.238378201043952 C 8.202766124082643 12.52399027800526 8.194641139570876 12.98449024551552 8.469999999999999 13.280000000000001 L 10.719999999999999 15.530000000000001 C 10.875824215455447 15.685706685187657 11.092222348223823 15.76503564071653 11.311762910779043 15.746933173277766 C 11.531303473334264 15.728830705839002 11.731784916596059 15.615127469479573 11.86 15.436000000000002 L 15.61 10.186000000000002 z" stroke-linecap="round" />
</g>
</svg>