<svg xmlns="http://www.w3.org/2000/svg" xmlns:xlink="http://www.w3.org/1999/xlink" width="51" zoomAndPan="magnify" viewBox="0 0 38.25 30.75" height="41" preserveAspectRatio="xMidYMid meet" version="1.0"><defs><filter x="0%" y="0%" width="100%" height="100%" id="be73f34563"><feColorMatrix values="0 0 0 0 1 0 0 0 0 1 0 0 0 0 1 0 0 0 1 0" color-interpolation-filters="sRGB"/></filter><clipPath id="90752e6fd5"><path d="M 0 0.171875 L 28.6875 0.171875 L 28.6875 30.332031 L 0 30.332031 Z M 0 0.171875 " clip-rule="nonzero"/></clipPath><clipPath id="5598ce57d3"><path d="M 18 3 L 37.515625 3 L 37.515625 23 L 18 23 Z M 18 3 " clip-rule="nonzero"/></clipPath><mask id="8be7b3c96a"><g filter="url(#be73f34563)"><rect x="-3.825" width="45.9" fill="#000000" y="-3.075" height="36.9" fill-opacity="0.31"/></g></mask><clipPath id="49f5adfa4d"><path d="M 0.949219 0.921875 L 19.207031 0.921875 L 19.207031 19.175781 L 0.949219 19.175781 Z M 0.949219 0.921875 " clip-rule="nonzero"/></clipPath><clipPath id="6137db8aed"><path d="M 10.078125 0.921875 C 5.035156 0.921875 0.949219 5.007812 0.949219 10.046875 C 0.949219 15.089844 5.035156 19.175781 10.078125 19.175781 C 15.117188 19.175781 19.207031 15.089844 19.207031 10.046875 C 19.207031 5.007812 15.117188 0.921875 10.078125 0.921875 Z M 10.078125 0.921875 " clip-rule="nonzero"/></clipPath><clipPath id="3a959c394c"><rect x="0" width="20" y="0" height="20"/></clipPath><clipPath id="2332b0de6c"><path d="M 22.46875 6.902344 L 33.503906 6.902344 L 33.503906 19.40625 L 22.46875 19.40625 Z M 22.46875 6.902344 " clip-rule="nonzero"/></clipPath></defs><g clip-path="url(#90752e6fd5)"><path fill="#125444" d="M 28.292969 7.109375 C 28.039062 3.574219 25.183594 0.726562 21.648438 0.480469 C 19.421875 0.324219 17.3125 1.171875 15.832031 2.8125 C 11.582031 0.179688 7.425781 0.445312 7.214844 0.460938 C 3.261719 0.460938 0.0429688 3.679688 0.0429688 7.636719 C 0.0429688 9.3125 0.632812 10.941406 1.703125 12.226562 C 2.402344 13.0625 2.808594 14.046875 2.878906 15.0625 C 3.554688 25.273438 5.675781 28.46875 6.878906 29.464844 C 7.492188 29.972656 8.378906 29.992188 9 29.503906 C 9.363281 29.214844 9.621094 28.808594 9.722656 28.367188 L 11.492188 20.882812 C 11.792969 19.605469 12.917969 18.714844 14.230469 18.714844 C 14.832031 18.714844 15.40625 18.898438 15.890625 19.253906 C 16.375 19.605469 16.726562 20.09375 16.914062 20.664062 L 19.707031 29.335938 C 19.882812 29.875 20.382812 30.238281 20.949219 30.238281 C 21.183594 30.238281 21.414062 30.175781 21.609375 30.054688 C 21.808594 29.941406 21.976562 29.769531 22.09375 29.558594 C 22.871094 28.144531 25.441406 22.871094 25.765625 14.492188 C 25.796875 13.675781 26.109375 12.882812 26.671875 12.199219 C 27.847656 10.773438 28.425781 8.964844 28.292969 7.109375 Z M 26.320312 11.90625 C 25.691406 12.667969 25.339844 13.554688 25.304688 14.472656 C 24.988281 22.753906 22.457031 27.945312 21.691406 29.335938 C 21.617188 29.472656 21.507812 29.585938 21.375 29.664062 C 21.246094 29.742188 21.101562 29.78125 20.949219 29.78125 C 20.578125 29.78125 20.253906 29.546875 20.140625 29.195312 L 17.347656 20.523438 C 17.132812 19.859375 16.722656 19.292969 16.160156 18.882812 C 15.597656 18.472656 14.929688 18.253906 14.230469 18.253906 C 12.707031 18.253906 11.394531 19.292969 11.046875 20.777344 L 9.277344 28.261719 C 9.195312 28.605469 8.996094 28.921875 8.703125 29.152344 C 8.265625 29.5 7.621094 29.480469 7.171875 29.113281 C 4.402344 26.820312 3.566406 18.5 3.335938 15.03125 C 3.261719 13.917969 2.816406 12.84375 2.054688 11.933594 C 1.054688 10.730469 0.503906 9.207031 0.503906 7.636719 C 0.503906 5.84375 1.199219 4.15625 2.46875 2.886719 C 3.734375 1.617188 5.421875 0.917969 7.234375 0.917969 C 7.304688 0.914062 14.15625 0.441406 19.171875 6.285156 C 19.253906 6.382812 19.398438 6.394531 19.492188 6.308594 C 19.589844 6.226562 19.601562 6.082031 19.519531 5.988281 C 18.46875 4.765625 17.347656 3.808594 16.222656 3.066406 C 17.605469 1.566406 19.558594 0.792969 21.617188 0.9375 C 24.925781 1.167969 27.597656 3.835938 27.832031 7.144531 C 27.957031 8.878906 27.421875 10.570312 26.320312 11.90625 Z M 26.320312 11.90625 " fill-opacity="1" fill-rule="nonzero"/></g><path fill="#125444" d="M 3.964844 3.699219 C 2.914062 4.75 2.335938 6.148438 2.335938 7.636719 C 2.335938 8.9375 2.792969 10.203125 3.625 11.199219 C 3.667969 11.253906 3.734375 11.28125 3.800781 11.28125 C 3.851562 11.28125 3.902344 11.261719 3.945312 11.226562 C 4.042969 11.144531 4.054688 11 3.976562 10.90625 C 3.214844 9.992188 2.792969 8.832031 2.792969 7.636719 C 2.792969 6.269531 3.324219 4.988281 4.289062 4.019531 C 4.378906 3.933594 4.378906 3.785156 4.289062 3.699219 C 4.203125 3.609375 4.054688 3.609375 3.964844 3.699219 Z M 3.964844 3.699219 " fill-opacity="1" fill-rule="nonzero"/><g clip-path="url(#5598ce57d3)"><g mask="url(#8be7b3c96a)"><g transform="matrix(1, 0, 0, 1, 18, 3)"><g clip-path="url(#3a959c394c)"><g clip-path="url(#49f5adfa4d)"><g clip-path="url(#6137db8aed)"><path fill="#125444" d="M 0.949219 0.921875 L 19.207031 0.921875 L 19.207031 19.175781 L 0.949219 19.175781 Z M 0.949219 0.921875 " fill-opacity="1" fill-rule="nonzero"/></g></g></g></g></g></g><g clip-path="url(#2332b0de6c)"><path fill="#fefefe" d="M 33.683594 12.160156 L 28.960938 12.160156 L 28.960938 6.976562 L 27.191406 6.976562 L 27.191406 12.160156 L 22.46875 12.160156 L 22.46875 13.929688 L 27.191406 13.929688 L 27.191406 19.113281 L 28.960938 19.113281 L 28.960938 13.929688 L 33.683594 13.929688 Z M 33.683594 12.160156 " fill-opacity="1" fill-rule="nonzero"/></g></svg>