<svg xmlns="http://www.w3.org/2000/svg" xmlns:xlink="http://www.w3.org/1999/xlink" width="54" zoomAndPan="magnify" viewBox="0 0 40.5 30.75" height="41" preserveAspectRatio="xMidYMid meet" version="1.0"><defs><filter x="0%" y="0%" width="100%" height="100%" id="61c7435fe4"><feColorMatrix values="0 0 0 0 1 0 0 0 0 1 0 0 0 0 1 0 0 0 1 0" color-interpolation-filters="sRGB"/></filter><clipPath id="0b84dd9505"><path d="M 0 0.0625 L 28.894531 0.0625 L 28.894531 30.4375 L 0 30.4375 Z M 0 0.0625 " clip-rule="nonzero"/></clipPath><mask id="c1a9d29c8f"><g filter="url(#61c7435fe4)"><rect x="-4.05" width="48.6" fill="#000000" y="-3.075" height="36.9" fill-opacity="0.31"/></g></mask><clipPath id="5b7bb2807e"><path d="M 0.945312 0.613281 L 19.332031 0.613281 L 19.332031 19 L 0.945312 19 Z M 0.945312 0.613281 " clip-rule="nonzero"/></clipPath><clipPath id="bbe9c4d891"><path d="M 10.136719 0.613281 C 5.058594 0.613281 0.945312 4.726562 0.945312 9.804688 C 0.945312 14.882812 5.058594 19 10.136719 19 C 15.214844 19 19.332031 14.882812 19.332031 9.804688 C 19.332031 4.726562 15.214844 0.613281 10.136719 0.613281 Z M 10.136719 0.613281 " clip-rule="nonzero"/></clipPath><clipPath id="e6ab11f895"><rect x="0" width="20" y="0" height="20"/></clipPath><clipPath id="f4a7b270c3"><path d="M 25.539062 12.476562 L 34.429688 12.476562 L 34.429688 21.367188 L 25.539062 21.367188 Z M 25.539062 12.476562 " clip-rule="nonzero"/></clipPath></defs><g clip-path="url(#0b84dd9505)"><path fill="#125444" d="M 28.492188 7.050781 C 28.238281 3.492188 25.363281 0.621094 21.804688 0.371094 C 19.5625 0.21875 17.4375 1.070312 15.945312 2.722656 C 11.667969 0.0703125 7.480469 0.339844 7.265625 0.355469 C 3.285156 0.355469 0.0429688 3.597656 0.0429688 7.582031 C 0.0429688 9.269531 0.636719 10.910156 1.714844 12.203125 C 2.421875 13.046875 2.828125 14.035156 2.898438 15.058594 C 3.582031 25.347656 5.71875 28.5625 6.929688 29.566406 C 7.546875 30.078125 8.4375 30.097656 9.0625 29.605469 C 9.429688 29.316406 9.6875 28.90625 9.792969 28.460938 L 11.574219 20.921875 C 11.875 19.636719 13.011719 18.738281 14.335938 18.738281 C 14.9375 18.738281 15.515625 18.925781 16.003906 19.28125 C 16.492188 19.636719 16.847656 20.125 17.035156 20.703125 L 19.847656 29.4375 C 20.023438 29.980469 20.527344 30.347656 21.097656 30.347656 C 21.335938 30.347656 21.566406 30.28125 21.765625 30.160156 C 21.964844 30.046875 22.132812 29.871094 22.25 29.660156 C 23.035156 28.234375 25.625 22.925781 25.949219 14.484375 C 25.980469 13.660156 26.296875 12.863281 26.863281 12.175781 C 28.050781 10.738281 28.628906 8.917969 28.492188 7.050781 Z M 26.507812 11.882812 C 25.875 12.648438 25.523438 13.542969 25.488281 14.464844 C 25.167969 22.804688 22.621094 28.035156 21.847656 29.4375 C 21.769531 29.574219 21.664062 29.6875 21.53125 29.765625 C 21.398438 29.84375 21.25 29.886719 21.097656 29.886719 C 20.726562 29.886719 20.402344 29.648438 20.285156 29.292969 L 17.472656 20.5625 C 17.257812 19.890625 16.84375 19.320312 16.277344 18.90625 C 15.707031 18.496094 15.039062 18.277344 14.335938 18.277344 C 12.796875 18.277344 11.476562 19.320312 11.125 20.816406 L 9.34375 28.355469 C 9.261719 28.703125 9.0625 29.019531 8.765625 29.253906 C 8.324219 29.601562 7.675781 29.582031 7.222656 29.210938 C 4.433594 26.902344 3.589844 18.523438 3.359375 15.03125 C 3.285156 13.90625 2.839844 12.828125 2.070312 11.90625 C 1.0625 10.699219 0.507812 9.164062 0.507812 7.582031 C 0.507812 5.773438 1.210938 4.074219 2.484375 2.796875 C 3.761719 1.519531 5.460938 0.816406 7.285156 0.816406 C 7.355469 0.808594 14.257812 0.332031 19.308594 6.21875 C 19.390625 6.316406 19.535156 6.328125 19.632812 6.246094 C 19.730469 6.164062 19.742188 6.015625 19.660156 5.917969 C 18.601562 4.6875 17.472656 3.726562 16.339844 2.976562 C 17.734375 1.46875 19.699219 0.6875 21.773438 0.832031 C 25.105469 1.0625 27.796875 3.75 28.035156 7.082031 C 28.160156 8.832031 27.617188 10.539062 26.507812 11.882812 Z M 26.507812 11.882812 " fill-opacity="1" fill-rule="nonzero"/></g><path fill="#125444" d="M 3.996094 3.613281 C 2.9375 4.671875 2.351562 6.082031 2.351562 7.582031 C 2.351562 8.890625 2.8125 10.167969 3.648438 11.167969 C 3.695312 11.222656 3.761719 11.25 3.828125 11.25 C 3.878906 11.25 3.929688 11.234375 3.972656 11.199219 C 4.074219 11.117188 4.085938 10.96875 4.003906 10.871094 C 3.238281 9.953125 2.816406 8.785156 2.816406 7.582031 C 2.816406 6.207031 3.351562 4.914062 4.320312 3.941406 C 4.410156 3.851562 4.410156 3.703125 4.320312 3.613281 C 4.230469 3.523438 4.085938 3.523438 3.996094 3.613281 Z M 3.996094 3.613281 " fill-opacity="1" fill-rule="nonzero"/><g mask="url(#c1a9d29c8f)"><g transform="matrix(1, 0, 0, 1, 20, 7)"><g clip-path="url(#e6ab11f895)"><g clip-path="url(#5b7bb2807e)"><g clip-path="url(#bbe9c4d891)"><path fill="#125444" d="M 0.945312 0.613281 L 19.332031 0.613281 L 19.332031 19 L 0.945312 19 Z M 0.945312 0.613281 " fill-opacity="1" fill-rule="nonzero"/></g></g></g></g></g><g clip-path="url(#f4a7b270c3)"><path fill="#ffffff" d="M 34.730469 20.589844 L 33.652344 21.667969 L 25.539062 13.558594 L 26.621094 12.476562 L 34.730469 20.589844 " fill-opacity="1" fill-rule="nonzero"/><path fill="#ffffff" d="M 26.621094 21.667969 L 25.539062 20.589844 L 33.652344 12.476562 L 34.730469 13.558594 L 26.621094 21.667969 " fill-opacity="1" fill-rule="nonzero"/></g></svg>