<svg xmlns="http://www.w3.org/2000/svg" xmlns:xlink="http://www.w3.org/1999/xlink" width="47" zoomAndPan="magnify" viewBox="0 0 35.25 30.75" height="41" preserveAspectRatio="xMidYMid meet" version="1.0"><defs><filter x="0%" y="0%" width="100%" height="100%" id="388f635d50"><feColorMatrix values="0 0 0 0 1 0 0 0 0 1 0 0 0 0 1 0 0 0 1 0" color-interpolation-filters="sRGB"/></filter><clipPath id="744ad2e164"><path d="M 0 0.199219 L 28.640625 0.199219 L 28.640625 30.308594 L 0 30.308594 Z M 0 0.199219 " clip-rule="nonzero"/></clipPath><clipPath id="b31a8ccb05"><path d="M 15 6 L 34.515625 6 L 34.515625 25 L 15 25 Z M 15 6 " clip-rule="nonzero"/></clipPath><mask id="2d4fb62dd8"><g filter="url(#388f635d50)"><rect x="-3.525" width="42.3" fill="#000000" y="-3.075" height="36.9" fill-opacity="0.31"/></g></mask><clipPath id="4b466b1d29"><path d="M 1.167969 0.09375 L 19.394531 0.09375 L 19.394531 18.324219 L 1.167969 18.324219 Z M 1.167969 0.09375 " clip-rule="nonzero"/></clipPath><clipPath id="9cfbae88af"><path d="M 10.28125 0.09375 C 5.25 0.09375 1.167969 4.175781 1.167969 9.210938 C 1.167969 14.242188 5.25 18.324219 10.28125 18.324219 C 15.316406 18.324219 19.394531 14.242188 19.394531 9.210938 C 19.394531 4.175781 15.316406 0.09375 10.28125 0.09375 Z M 10.28125 0.09375 " clip-rule="nonzero"/></clipPath><clipPath id="75aadb7154"><rect x="0" width="20" y="0" height="19"/></clipPath><clipPath id="f8e9f14d94"><path d="M 18.730469 10.566406 L 32.683594 10.566406 L 32.683594 20 L 18.730469 20 Z M 18.730469 10.566406 " clip-rule="nonzero"/></clipPath></defs><g clip-path="url(#744ad2e164)"><path fill="#125444" d="M 28.246094 7.125 C 27.992188 3.59375 25.140625 0.75 21.613281 0.503906 C 19.390625 0.347656 17.285156 1.195312 15.804688 2.835938 C 11.566406 0.207031 7.414062 0.46875 7.203125 0.484375 C 3.253906 0.484375 0.0429688 3.699219 0.0429688 7.648438 C 0.0429688 9.324219 0.632812 10.949219 1.703125 12.230469 C 2.398438 13.066406 2.804688 14.046875 2.871094 15.0625 C 3.550781 25.257812 5.667969 28.449219 6.867188 29.441406 C 7.480469 29.949219 8.367188 29.96875 8.984375 29.484375 C 9.347656 29.191406 9.605469 28.789062 9.707031 28.34375 L 11.472656 20.875 C 11.773438 19.597656 12.898438 18.707031 14.210938 18.707031 C 14.808594 18.707031 15.378906 18.894531 15.863281 19.246094 C 16.347656 19.597656 16.699219 20.085938 16.886719 20.65625 L 19.671875 29.3125 C 19.847656 29.851562 20.347656 30.214844 20.914062 30.214844 C 21.148438 30.214844 21.378906 30.152344 21.574219 30.03125 C 21.773438 29.917969 21.941406 29.746094 22.058594 29.535156 C 22.835938 28.121094 25.398438 22.859375 25.722656 14.492188 C 25.753906 13.675781 26.066406 12.886719 26.628906 12.203125 C 27.804688 10.78125 28.378906 8.976562 28.246094 7.125 Z M 26.277344 11.914062 C 25.648438 12.671875 25.300781 13.558594 25.265625 14.472656 C 24.945312 22.742188 22.421875 27.925781 21.65625 29.316406 C 21.582031 29.453125 21.472656 29.5625 21.339844 29.640625 C 21.214844 29.71875 21.066406 29.757812 20.914062 29.757812 C 20.546875 29.757812 20.222656 29.523438 20.109375 29.171875 L 17.320312 20.515625 C 17.105469 19.851562 16.695312 19.285156 16.132812 18.875 C 15.570312 18.46875 14.90625 18.25 14.210938 18.25 C 12.683594 18.25 11.375 19.285156 11.027344 20.769531 L 9.261719 28.242188 C 9.183594 28.585938 8.980469 28.898438 8.691406 29.132812 C 8.25 29.476562 7.609375 29.460938 7.160156 29.089844 C 4.394531 26.800781 3.558594 18.496094 3.328125 15.03125 C 3.253906 13.917969 2.8125 12.851562 2.050781 11.9375 C 1.050781 10.738281 0.5 9.214844 0.5 7.648438 C 0.5 5.859375 1.199219 4.175781 2.464844 2.90625 C 3.730469 1.640625 5.414062 0.945312 7.222656 0.941406 C 7.292969 0.9375 14.132812 0.464844 19.140625 6.300781 C 19.222656 6.394531 19.367188 6.40625 19.460938 6.324219 C 19.558594 6.242188 19.570312 6.097656 19.488281 6.003906 C 18.4375 4.78125 17.320312 3.828125 16.195312 3.085938 C 17.578125 1.589844 19.527344 0.816406 21.582031 0.960938 C 24.882812 1.191406 27.550781 3.851562 27.789062 7.15625 C 27.914062 8.890625 27.375 10.578125 26.277344 11.914062 Z M 26.277344 11.914062 " fill-opacity="1" fill-rule="nonzero"/></g><path fill="#125444" d="M 3.960938 3.714844 C 2.910156 4.765625 2.332031 6.164062 2.332031 7.648438 C 2.332031 8.949219 2.789062 10.210938 3.617188 11.203125 C 3.664062 11.257812 3.726562 11.285156 3.792969 11.285156 C 3.84375 11.285156 3.898438 11.269531 3.941406 11.234375 C 4.035156 11.152344 4.050781 11.007812 3.96875 10.910156 C 3.207031 10 2.789062 8.84375 2.789062 7.648438 C 2.789062 6.285156 3.320312 5.003906 4.285156 4.039062 C 4.375 3.949219 4.375 3.804688 4.285156 3.714844 C 4.195312 3.628906 4.050781 3.628906 3.960938 3.714844 Z M 3.960938 3.714844 " fill-opacity="1" fill-rule="nonzero"/><g clip-path="url(#b31a8ccb05)"><g mask="url(#2d4fb62dd8)"><g transform="matrix(1, 0, 0, 1, 15, 6)"><g clip-path="url(#75aadb7154)"><g clip-path="url(#4b466b1d29)"><g clip-path="url(#9cfbae88af)"><path fill="#125444" d="M 1.167969 0.09375 L 19.394531 0.09375 L 19.394531 18.324219 L 1.167969 18.324219 Z M 1.167969 0.09375 " fill-opacity="1" fill-rule="nonzero"/></g></g></g></g></g></g><g clip-path="url(#f8e9f14d94)"><path fill="#fefefe" d="M 20.917969 13.929688 C 21.414062 14.863281 21.847656 15.808594 22.414062 16.730469 C 22.96875 17.636719 23.300781 17.367188 24.300781 16.300781 C 26.289062 14.183594 27.976562 11.746094 30.949219 10.816406 C 31.535156 10.632812 31.929688 10.574219 32.175781 10.570312 C 32.585938 10.566406 32.558594 10.644531 32.222656 10.824219 C 31.28125 11.316406 30.824219 11.453125 29.945312 12.191406 C 27.605469 14.164062 25.171875 17.542969 24.007812 18.859375 C 23.335938 19.613281 22.5 19.847656 21.792969 18.851562 C 20.878906 17.558594 19.820312 16.191406 19.09375 15.027344 C 18.734375 14.449219 19.085938 14.03125 19.484375 13.757812 C 19.957031 13.433594 20.5625 13.265625 20.917969 13.929688 Z M 20.917969 13.929688 " fill-opacity="1" fill-rule="evenodd"/></g></svg>