<svg xmlns="http://www.w3.org/2000/svg" xmlns:xlink="http://www.w3.org/1999/xlink" width="91" zoomAndPan="magnify" viewBox="0 0 68.25 65.249999" height="87" preserveAspectRatio="xMidYMid meet" version="1.0"><defs><clipPath id="0db3790453"><path d="M 0.015625 0 L 67.492188 0 L 67.492188 64.507812 L 0.015625 64.507812 Z M 0.015625 0 " clip-rule="nonzero"/></clipPath><clipPath id="e14bd1e985"><path d="M 5.46875 2.4375 L 61.820312 2.4375 L 61.820312 61.753906 L 5.46875 61.753906 Z M 5.46875 2.4375 " clip-rule="nonzero"/></clipPath></defs><g clip-path="url(#0db3790453)"><path fill="#ffffff" d="M 0.015625 0 L 67.492188 0 L 67.492188 64.507812 L 0.015625 64.507812 Z M 0.015625 0 " fill-opacity="1" fill-rule="nonzero"/></g><g clip-path="url(#e14bd1e985)"><path fill="#000000" d="M 59.347656 8.054688 L 47.988281 8.054688 L 47.988281 5.652344 C 47.988281 3.878906 46.539062 2.4375 44.753906 2.4375 L 22.523438 2.4375 C 20.738281 2.4375 19.289062 3.878906 19.289062 5.652344 L 19.289062 8.054688 L 7.929688 8.054688 C 6.570312 8.054688 5.464844 9.15625 5.464844 10.507812 L 5.464844 49.5 C 5.464844 50.851562 6.570312 51.949219 7.929688 51.949219 L 27.21875 51.949219 L 27.21875 55.664062 L 24.519531 57.058594 C 24.4375 57.101562 24.359375 57.140625 24.28125 57.183594 C 23.511719 57.566406 22.457031 58.097656 22.457031 59.367188 C 22.457031 60.683594 23.535156 61.757812 24.863281 61.757812 L 42.414062 61.757812 C 43.742188 61.757812 44.820312 60.683594 44.820312 59.367188 C 44.820312 58.097656 43.769531 57.566406 43 57.183594 C 42.917969 57.140625 42.839844 57.101562 42.757812 57.058594 L 40.058594 55.664062 L 40.058594 51.949219 L 59.347656 51.949219 C 60.707031 51.949219 61.816406 50.851562 61.816406 49.5 L 61.816406 10.503906 C 61.8125 9.152344 60.707031 8.054688 59.347656 8.054688 Z M 59.347656 9.53125 C 59.886719 9.53125 60.328125 9.96875 60.328125 10.503906 L 60.328125 43.386719 L 47.988281 43.386719 L 47.988281 9.53125 Z M 22.523438 3.914062 L 44.753906 3.914062 C 45.71875 3.914062 46.503906 4.695312 46.503906 5.652344 L 46.503906 43.386719 L 20.773438 43.386719 L 20.773438 5.652344 C 20.773438 4.695312 21.558594 3.914062 22.523438 3.914062 Z M 7.929688 9.53125 L 19.289062 9.53125 L 19.289062 43.386719 L 6.949219 43.386719 L 6.949219 10.503906 C 6.949219 9.96875 7.390625 9.53125 7.929688 9.53125 Z M 38.96875 56.769531 L 42.070312 58.371094 C 42.15625 58.414062 42.242188 58.457031 42.328125 58.5 C 43.09375 58.882812 43.332031 59.054688 43.332031 59.363281 C 43.332031 59.867188 42.921875 60.277344 42.414062 60.277344 L 24.863281 60.277344 C 24.355469 60.277344 23.941406 59.867188 23.941406 59.363281 C 23.941406 59.054688 24.183594 58.882812 24.949219 58.5 C 25.035156 58.457031 25.117188 58.414062 25.203125 58.371094 L 28.304688 56.769531 C 28.550781 56.640625 28.707031 56.390625 28.707031 56.113281 L 28.707031 51.949219 L 38.570312 51.949219 L 38.570312 56.113281 C 38.570312 56.386719 38.726562 56.640625 38.96875 56.769531 Z M 59.347656 50.472656 L 7.929688 50.472656 C 7.390625 50.472656 6.949219 50.035156 6.949219 49.5 L 6.949219 44.863281 L 60.328125 44.863281 L 60.328125 49.5 C 60.328125 50.035156 59.886719 50.472656 59.347656 50.472656 Z M 22.613281 23.917969 C 22.613281 23.511719 22.949219 23.179688 23.359375 23.179688 L 43.03125 23.179688 C 43.441406 23.179688 43.773438 23.511719 43.773438 23.917969 C 43.773438 24.324219 43.441406 24.65625 43.03125 24.65625 L 23.359375 24.65625 C 22.949219 24.65625 22.613281 24.324219 22.613281 23.917969 Z M 34.628906 18.980469 L 43.03125 18.980469 C 43.441406 18.980469 43.773438 19.3125 43.773438 19.71875 C 43.773438 20.125 43.441406 20.457031 43.03125 20.457031 L 34.628906 20.457031 C 34.21875 20.457031 33.886719 20.125 33.886719 19.71875 C 33.886719 19.3125 34.21875 18.980469 34.628906 18.980469 Z M 22.613281 28.570312 C 22.613281 28.164062 22.949219 27.832031 23.359375 27.832031 L 43.03125 27.832031 C 43.441406 27.832031 43.773438 28.164062 43.773438 28.570312 C 43.773438 28.976562 43.441406 29.308594 43.03125 29.308594 L 23.359375 29.308594 C 22.949219 29.308594 22.613281 28.976562 22.613281 28.570312 Z M 22.613281 33.222656 C 22.613281 32.816406 22.949219 32.484375 23.359375 32.484375 L 43.03125 32.484375 C 43.441406 32.484375 43.773438 32.816406 43.773438 33.222656 C 43.773438 33.628906 43.441406 33.960938 43.03125 33.960938 L 23.359375 33.960938 C 22.949219 33.960938 22.613281 33.628906 22.613281 33.222656 Z M 22.613281 37.875 C 22.613281 37.464844 22.949219 37.136719 23.359375 37.136719 L 43.03125 37.136719 C 43.441406 37.136719 43.773438 37.464844 43.773438 37.875 C 43.773438 38.28125 43.441406 38.613281 43.03125 38.613281 L 23.359375 38.613281 C 22.949219 38.613281 22.613281 38.28125 22.613281 37.875 Z M 25.578125 12.484375 C 25.578125 12.074219 25.910156 11.746094 26.320312 11.746094 L 28.140625 11.746094 L 28.140625 9.9375 C 28.140625 9.527344 28.476562 9.199219 28.886719 9.199219 C 29.296875 9.199219 29.628906 9.527344 29.628906 9.9375 L 29.628906 11.746094 L 31.449219 11.746094 C 31.859375 11.746094 32.195312 12.078125 32.195312 12.484375 C 32.195312 12.890625 31.859375 13.222656 31.449219 13.222656 L 29.628906 13.222656 L 29.628906 15.03125 C 29.628906 15.441406 29.296875 15.769531 28.886719 15.769531 C 28.476562 15.769531 28.140625 15.441406 28.140625 15.03125 L 28.140625 13.222656 L 26.320312 13.222656 C 25.910156 13.222656 25.578125 12.890625 25.578125 12.484375 Z M 28.886719 18.679688 C 32.324219 18.679688 35.121094 15.902344 35.121094 12.484375 C 35.121094 9.066406 32.324219 6.289062 28.886719 6.289062 C 25.445312 6.289062 22.648438 9.066406 22.648438 12.484375 C 22.648438 15.902344 25.445312 18.679688 28.886719 18.679688 Z M 28.886719 7.761719 C 31.503906 7.761719 33.636719 9.882812 33.636719 12.484375 C 33.636719 15.085938 31.503906 17.203125 28.886719 17.203125 C 26.265625 17.203125 24.132812 15.085938 24.132812 12.484375 C 24.132812 9.882812 26.265625 7.761719 28.886719 7.761719 Z M 28.886719 7.761719 " fill-opacity="1" fill-rule="nonzero"/></g></svg>