<svg xmlns="http://www.w3.org/2000/svg" xmlns:xlink="http://www.w3.org/1999/xlink" width="79" zoomAndPan="magnify" viewBox="0 0 59.25 60" height="80" preserveAspectRatio="xMidYMid meet" version="1.0"><defs><clipPath id="d35c6803c7"><path d="M 0 0.375 L 58.507812 0.375 L 58.507812 59.625 L 0 59.625 Z M 0 0.375 " clip-rule="nonzero"/></clipPath><clipPath id="98cd02880d"><path d="M 0.554688 2 L 58.324219 2 L 58.324219 58.789062 L 0.554688 58.789062 Z M 0.554688 2 " clip-rule="nonzero"/></clipPath></defs><g clip-path="url(#d35c6803c7)"><path fill="#ffffff" d="M 0 0.375 L 58.507812 0.375 L 58.507812 59.625 L 0 59.625 Z M 0 0.375 " fill-opacity="1" fill-rule="nonzero"/></g><path fill="#166f61" d="M 30.460938 10.304688 C 29.871094 10.304688 29.285156 10.363281 28.707031 10.480469 C 28.128906 10.59375 27.570312 10.765625 27.023438 10.992188 C 26.480469 11.21875 25.964844 11.496094 25.472656 11.824219 C 24.984375 12.152344 24.53125 12.527344 24.113281 12.945312 C 23.699219 13.363281 23.328125 13.816406 23 14.304688 C 22.671875 14.796875 22.398438 15.316406 22.171875 15.859375 C 21.949219 16.40625 21.777344 16.96875 21.664062 17.546875 C 21.550781 18.125 21.492188 18.707031 21.492188 19.296875 C 21.496094 19.886719 21.554688 20.472656 21.667969 21.050781 C 21.785156 21.628906 21.957031 22.1875 22.183594 22.734375 C 22.410156 23.277344 22.6875 23.796875 23.015625 24.285156 C 23.34375 24.773438 23.714844 25.226562 24.132812 25.644531 C 24.550781 26.0625 25.003906 26.433594 25.496094 26.757812 C 25.984375 27.085938 26.503906 27.363281 27.046875 27.585938 C 27.59375 27.8125 28.15625 27.980469 28.734375 28.097656 C 29.3125 28.210938 29.894531 28.269531 30.484375 28.265625 C 31.074219 28.265625 31.660156 28.207031 32.238281 28.09375 C 32.816406 27.976562 33.375 27.808594 33.921875 27.582031 C 34.464844 27.355469 34.984375 27.078125 35.472656 26.75 C 35.964844 26.421875 36.417969 26.046875 36.832031 25.632812 C 37.25 25.214844 37.621094 24.761719 37.949219 24.269531 C 38.277344 23.78125 38.550781 23.261719 38.777344 22.714844 C 39.003906 22.171875 39.171875 21.609375 39.289062 21.03125 C 39.402344 20.453125 39.460938 19.871094 39.457031 19.28125 C 39.457031 18.691406 39.398438 18.105469 39.28125 17.527344 C 39.167969 16.949219 38.996094 16.386719 38.769531 15.84375 C 38.542969 15.296875 38.265625 14.78125 37.9375 14.289062 C 37.609375 13.800781 37.234375 13.347656 36.816406 12.929688 C 36.398438 12.511719 35.945312 12.140625 35.453125 11.8125 C 34.960938 11.484375 34.445312 11.210938 33.898438 10.984375 C 33.355469 10.757812 32.792969 10.589844 32.214844 10.472656 C 31.632812 10.359375 31.050781 10.300781 30.460938 10.304688 Z M 30.460938 26.058594 C 30.015625 26.058594 29.570312 26.011719 29.132812 25.925781 C 28.695312 25.835938 28.273438 25.707031 27.859375 25.535156 C 27.449219 25.363281 27.058594 25.152344 26.6875 24.90625 C 26.316406 24.65625 25.972656 24.375 25.660156 24.058594 C 25.34375 23.742188 25.0625 23.398438 24.816406 23.023438 C 24.570312 22.652344 24.363281 22.261719 24.191406 21.847656 C 24.023438 21.4375 23.894531 21.011719 23.808594 20.574219 C 23.722656 20.136719 23.679688 19.691406 23.679688 19.246094 C 23.683594 18.800781 23.726562 18.359375 23.816406 17.921875 C 23.902344 17.484375 24.03125 17.058594 24.203125 16.648438 C 24.375 16.234375 24.585938 15.84375 24.835938 15.472656 C 25.082031 15.105469 25.367188 14.761719 25.683594 14.445312 C 26 14.132812 26.34375 13.851562 26.714844 13.605469 C 27.085938 13.355469 27.476562 13.148438 27.890625 12.980469 C 28.304688 12.808594 28.730469 12.679688 29.167969 12.59375 C 29.605469 12.507812 30.046875 12.464844 30.492188 12.46875 C 30.9375 12.46875 31.378906 12.511719 31.816406 12.601562 C 32.253906 12.691406 32.679688 12.820312 33.09375 12.992188 C 33.503906 13.164062 33.894531 13.375 34.265625 13.621094 C 34.636719 13.871094 34.976562 14.152344 35.292969 14.46875 C 35.609375 14.785156 35.890625 15.128906 36.136719 15.5 C 36.382812 15.875 36.589844 16.265625 36.761719 16.679688 C 36.929688 17.089844 37.058594 17.515625 37.144531 17.953125 C 37.230469 18.390625 37.273438 18.832031 37.273438 19.28125 C 37.269531 19.726562 37.226562 20.167969 37.136719 20.605469 C 37.046875 21.042969 36.917969 21.464844 36.746094 21.878906 C 36.574219 22.289062 36.363281 22.679688 36.113281 23.050781 C 35.867188 23.421875 35.582031 23.761719 35.265625 24.078125 C 34.949219 24.390625 34.605469 24.671875 34.234375 24.917969 C 33.863281 25.167969 33.472656 25.375 33.058594 25.546875 C 32.648438 25.714844 32.222656 25.84375 31.785156 25.929688 C 31.347656 26.015625 30.90625 26.058594 30.460938 26.058594 Z M 30.460938 26.058594 " fill-opacity="1" fill-rule="nonzero"/><g clip-path="url(#98cd02880d)"><path fill="#166f61" d="M 45.613281 26.800781 C 45.898438 26.234375 46.148438 25.652344 46.363281 25.054688 C 46.582031 24.457031 46.761719 23.851562 46.910156 23.234375 C 47.058594 22.613281 47.171875 21.992188 47.25 21.359375 C 47.328125 20.730469 47.371094 20.097656 47.378906 19.464844 C 47.386719 18.828125 47.359375 18.195312 47.292969 17.5625 C 47.226562 16.929688 47.128906 16.304688 46.992188 15.683594 C 46.859375 15.0625 46.6875 14.453125 46.484375 13.851562 C 46.28125 13.25 46.042969 12.664062 45.773438 12.085938 C 45.503906 11.511719 45.203125 10.957031 44.867188 10.414062 C 44.535156 9.875 44.171875 9.351562 43.78125 8.855469 C 43.390625 8.355469 42.972656 7.878906 42.527344 7.425781 C 42.082031 6.972656 41.609375 6.546875 41.117188 6.144531 C 40.625 5.746094 40.109375 5.375 39.574219 5.035156 C 39.039062 4.691406 38.488281 4.382812 37.917969 4.101562 C 37.347656 3.820312 36.761719 3.574219 36.164062 3.363281 C 35.566406 3.148438 34.957031 2.96875 34.339844 2.824219 C 33.722656 2.679688 33.097656 2.570312 32.464844 2.492188 C 31.835938 2.417969 31.203125 2.378906 30.566406 2.375 C 29.933594 2.371094 29.300781 2.40625 28.667969 2.472656 C 28.035156 2.542969 27.410156 2.644531 26.792969 2.78125 C 26.171875 2.921875 25.5625 3.09375 24.960938 3.300781 C 24.359375 3.507812 23.773438 3.75 23.199219 4.023438 C 22.628906 4.296875 22.070312 4.601562 21.53125 4.9375 C 20.992188 5.273438 20.476562 5.636719 19.976562 6.03125 C 19.480469 6.425781 19.007812 6.847656 18.554688 7.292969 C 18.105469 7.742188 17.683594 8.214844 17.285156 8.710938 C 16.886719 9.207031 16.519531 9.722656 16.179688 10.257812 C 15.84375 10.796875 15.535156 11.351562 15.257812 11.921875 C 14.980469 12.492188 14.738281 13.078125 14.527344 13.679688 C 14.316406 14.277344 14.140625 14.886719 14 15.503906 C 13.855469 16.125 13.75 16.75 13.679688 17.378906 C 13.609375 18.011719 13.570312 18.644531 13.570312 19.28125 C 13.566406 21.433594 13.96875 23.511719 14.769531 25.511719 C 10.4375 33.363281 6.109375 41.21875 1.785156 49.074219 L 0.691406 51.097656 L 6.886719 49.945312 L 10.871094 49.207031 C 11.921875 51.726562 12.964844 54.246094 14.003906 56.765625 L 14.851562 58.859375 L 27.503906 35.898438 C 29.066406 36.1875 30.636719 36.246094 32.214844 36.070312 C 34.902344 41.261719 37.589844 46.457031 40.285156 51.648438 L 44.046875 58.898438 L 44.957031 56.777344 C 46.015625 54.316406 47.074219 51.855469 48.128906 49.386719 L 51.203125 49.992188 L 56.160156 50.976562 L 58.390625 51.425781 Z M 15.152344 53.832031 L 12.550781 47.550781 L 12.210938 46.734375 L 11.339844 46.894531 L 6.480469 47.796875 L 4.839844 48.101562 C 8.546875 41.375 12.257812 34.644531 15.972656 27.914062 C 16.109375 28.152344 16.257812 28.382812 16.410156 28.605469 C 16.441406 28.660156 16.480469 28.714844 16.519531 28.769531 C 16.648438 28.960938 16.785156 29.160156 16.929688 29.34375 C 16.984375 29.425781 17.042969 29.503906 17.105469 29.578125 C 17.234375 29.75 17.367188 29.914062 17.503906 30.078125 C 17.5625 30.148438 17.617188 30.21875 17.683594 30.289062 C 17.859375 30.5 18.042969 30.707031 18.230469 30.902344 L 18.273438 30.953125 C 18.476562 31.164062 18.6875 31.371094 18.902344 31.574219 L 19.109375 31.761719 C 19.261719 31.902344 19.417969 32.039062 19.574219 32.171875 C 19.734375 32.300781 19.734375 32.308594 19.816406 32.375 C 19.980469 32.511719 20.148438 32.640625 20.320312 32.765625 L 20.519531 32.925781 C 20.757812 33.09375 20.992188 33.257812 21.238281 33.417969 C 21.300781 33.464844 21.378906 33.503906 21.449219 33.554688 C 21.625 33.667969 21.8125 33.777344 21.996094 33.886719 L 22.285156 34.050781 C 22.457031 34.144531 22.625 34.238281 22.800781 34.324219 L 23.089844 34.472656 C 23.316406 34.582031 23.542969 34.6875 23.777344 34.789062 L 23.933594 34.855469 C 24.1875 34.964844 24.445312 35.0625 24.707031 35.160156 L 25 35.261719 L 25.332031 35.378906 Z M 27.179688 33.601562 C 26.894531 33.539062 26.632812 33.464844 26.335938 33.382812 C 25.863281 33.246094 25.394531 33.082031 24.9375 32.894531 L 24.535156 32.71875 C 22.84375 31.972656 21.347656 30.949219 20.046875 29.644531 C 18.742188 28.339844 17.71875 26.839844 16.976562 25.152344 C 16.160156 23.28125 15.753906 21.324219 15.757812 19.28125 C 15.757812 18.773438 15.785156 18.269531 15.835938 17.765625 C 15.886719 17.265625 15.964844 16.765625 16.070312 16.269531 C 16.171875 15.773438 16.300781 15.285156 16.453125 14.804688 C 16.605469 14.324219 16.785156 13.851562 16.988281 13.386719 C 17.1875 12.921875 17.414062 12.472656 17.664062 12.03125 C 17.910156 11.589844 18.183594 11.164062 18.472656 10.75 C 18.765625 10.339844 19.078125 9.941406 19.414062 9.5625 C 19.746094 9.183594 20.097656 8.820312 20.46875 8.476562 C 20.839844 8.132812 21.226562 7.808594 21.632812 7.503906 C 22.035156 7.199219 22.453125 6.917969 22.886719 6.65625 C 23.320312 6.398438 23.765625 6.160156 24.222656 5.945312 C 24.679688 5.726562 25.148438 5.539062 25.625 5.371094 C 26.101562 5.203125 26.585938 5.0625 27.078125 4.945312 C 27.570312 4.828125 28.066406 4.734375 28.570312 4.671875 C 29.070312 4.605469 29.574219 4.566406 30.078125 4.550781 C 30.585938 4.535156 31.089844 4.546875 31.59375 4.585938 C 32.097656 4.625 32.597656 4.6875 33.097656 4.777344 C 33.59375 4.867188 34.085938 4.984375 34.570312 5.121094 C 35.058594 5.261719 35.535156 5.429688 36.003906 5.617188 C 36.472656 5.804688 36.929688 6.019531 37.378906 6.257812 C 37.824219 6.492188 38.257812 6.75 38.679688 7.03125 C 39.097656 7.3125 39.503906 7.617188 39.890625 7.9375 C 40.28125 8.261719 40.652344 8.605469 41.007812 8.964844 C 41.359375 9.324219 41.695312 9.703125 42.011719 10.101562 C 42.324219 10.496094 42.617188 10.90625 42.890625 11.332031 C 43.164062 11.757812 43.414062 12.195312 43.640625 12.648438 C 43.867188 13.101562 44.074219 13.5625 44.253906 14.035156 C 44.433594 14.507812 44.585938 14.988281 44.71875 15.476562 C 44.847656 15.964844 44.953125 16.457031 45.03125 16.957031 C 45.113281 17.457031 45.164062 17.960938 45.191406 18.464844 C 45.222656 18.96875 45.222656 19.472656 45.199219 19.980469 C 45.175781 20.484375 45.125 20.988281 45.046875 21.488281 C 44.972656 21.988281 44.871094 22.480469 44.742188 22.96875 C 44.617188 23.460938 44.464844 23.941406 44.289062 24.414062 C 44.113281 24.890625 43.910156 25.351562 43.6875 25.804688 C 43.464844 26.257812 43.214844 26.699219 42.945312 27.128906 C 42.675781 27.554688 42.386719 27.96875 42.074219 28.367188 C 41.761719 28.761719 41.429688 29.144531 41.078125 29.507812 C 40.726562 29.871094 40.359375 30.214844 39.972656 30.542969 C 39.585938 30.867188 39.183594 31.171875 38.761719 31.457031 C 38.34375 31.742188 37.914062 32.003906 37.46875 32.242188 C 37.023438 32.480469 36.566406 32.699219 36.097656 32.890625 C 35.632812 33.082031 35.15625 33.25 34.671875 33.394531 C 34.1875 33.539062 33.695312 33.65625 33.199219 33.75 C 32.699219 33.84375 32.199219 33.910156 31.695312 33.953125 C 31.191406 33.992188 30.6875 34.007812 30.183594 34 C 29.675781 33.988281 29.171875 33.953125 28.671875 33.890625 C 28.167969 33.828125 27.671875 33.738281 27.179688 33.625 Z M 51.628906 47.851562 L 46.816406 46.894531 L 46.46875 47.707031 C 45.605469 49.742188 44.730469 51.765625 43.859375 53.792969 L 42.21875 50.644531 L 34.472656 35.691406 L 34.75 35.617188 L 35.042969 35.539062 L 35.714844 35.332031 L 35.890625 35.277344 C 36.167969 35.179688 36.433594 35.078125 36.71875 34.96875 L 36.925781 34.882812 L 37.539062 34.613281 L 37.800781 34.488281 L 38.347656 34.199219 L 38.578125 34.078125 C 38.835938 33.9375 39.09375 33.789062 39.34375 33.636719 L 39.398438 33.597656 C 39.628906 33.449219 39.859375 33.300781 40.078125 33.148438 L 40.304688 32.984375 C 40.476562 32.867188 40.640625 32.738281 40.804688 32.613281 L 41.03125 32.433594 C 41.214844 32.292969 41.386719 32.136719 41.578125 31.992188 L 41.734375 31.859375 C 41.945312 31.667969 42.160156 31.464844 42.371094 31.257812 L 42.53125 31.09375 C 42.683594 30.933594 42.835938 30.777344 42.984375 30.613281 C 43.054688 30.542969 43.121094 30.464844 43.1875 30.390625 L 43.589844 29.914062 L 43.765625 29.695312 C 43.945312 29.464844 44.121094 29.234375 44.3125 28.996094 L 54.367188 48.390625 Z M 51.628906 47.851562 " fill-opacity="1" fill-rule="nonzero"/></g></svg>