<svg xmlns="http://www.w3.org/2000/svg" xmlns:xlink="http://www.w3.org/1999/xlink" width="91" zoomAndPan="magnify" viewBox="0 0 68.25 65.249999" height="87" preserveAspectRatio="xMidYMid meet" version="1.0"><defs><clipPath id="e90d2a1446"><path d="M 7.007812 7.382812 L 60.394531 7.382812 L 60.394531 47 L 7.007812 47 Z M 7.007812 7.382812 " clip-rule="nonzero"/></clipPath><clipPath id="524167a914"><path d="M 7.007812 38 L 60.394531 38 L 60.394531 40 L 7.007812 40 Z M 7.007812 38 " clip-rule="nonzero"/></clipPath><clipPath id="03e056a4e9"><path d="M 20 45 L 47 45 L 47 57.0625 L 20 57.0625 Z M 20 45 " clip-rule="nonzero"/></clipPath></defs><g clip-path="url(#e90d2a1446)"><path fill="#000000" d="M 57.769531 46.570312 L 9.636719 46.570312 C 8.304688 46.570312 7.21875 45.488281 7.21875 44.160156 L 7.21875 9.792969 C 7.21875 8.464844 8.304688 7.382812 9.636719 7.382812 L 57.769531 7.382812 C 59.101562 7.382812 60.1875 8.464844 60.1875 9.792969 L 60.1875 44.160156 C 60.1875 45.488281 59.101562 46.570312 57.769531 46.570312 Z M 9.636719 8.621094 C 8.988281 8.621094 8.460938 9.144531 8.460938 9.792969 L 8.460938 44.160156 C 8.460938 44.808594 8.988281 45.332031 9.636719 45.332031 L 57.769531 45.332031 C 58.417969 45.332031 58.945312 44.808594 58.945312 44.160156 L 58.945312 9.792969 C 58.945312 9.144531 58.417969 8.621094 57.769531 8.621094 Z M 9.636719 8.621094 " fill-opacity="1" fill-rule="evenodd"/></g><g clip-path="url(#524167a914)"><path fill="#000000" d="M 59.566406 39.894531 L 7.839844 39.894531 C 7.023438 39.894531 7.023438 38.65625 7.839844 38.65625 L 59.566406 38.65625 C 60.382812 38.65625 60.382812 39.894531 59.566406 39.894531 Z M 59.566406 39.894531 " fill-opacity="1" fill-rule="evenodd"/></g><path fill="#000000" d="M 35.902344 43.230469 L 31.503906 43.230469 C 30.6875 43.230469 30.6875 41.992188 31.503906 41.992188 L 35.902344 41.992188 C 36.71875 41.992188 36.71875 43.230469 35.902344 43.230469 Z M 35.902344 43.230469 " fill-opacity="1" fill-rule="evenodd"/><g clip-path="url(#03e056a4e9)"><path fill="#000000" d="M 46 57.0625 L 21.40625 57.0625 C 20.777344 57.0625 20.546875 56.222656 21.09375 55.910156 C 25.035156 53.632812 27.1875 45.867188 27.207031 45.789062 C 27.421875 45 28.621094 45.328125 28.40625 46.113281 C 28.324219 46.410156 26.609375 52.601562 23.230469 55.824219 L 44.175781 55.824219 C 40.796875 52.601562 39.082031 46.410156 39 46.113281 C 38.785156 45.328125 39.984375 45 40.199219 45.789062 C 40.21875 45.867188 42.371094 53.632812 46.3125 55.910156 C 46.859375 56.222656 46.628906 57.0625 46 57.0625 Z M 46 57.0625 " fill-opacity="1" fill-rule="evenodd"/></g><path fill="#000000" d="M 35.410156 35.105469 C 33.207031 35.105469 31.042969 34.503906 29.15625 33.367188 C 28.457031 32.945312 29.101562 31.886719 29.800781 32.308594 C 36.992188 36.636719 46.242188 31.480469 46.242188 23.074219 C 46.242188 17.121094 41.382812 12.28125 35.410156 12.28125 C 29.34375 12.28125 24.445312 17.265625 24.582031 23.320312 C 24.597656 24.03125 23.339844 24.398438 23.339844 23.074219 C 23.339844 16.441406 28.753906 11.042969 35.410156 11.042969 C 42.066406 11.042969 47.484375 16.441406 47.484375 23.074219 C 47.484375 29.710938 42.066406 35.105469 35.410156 35.105469 Z M 35.410156 35.105469 " fill-opacity="1" fill-rule="evenodd"/><path fill="#000000" d="M 23.960938 23.953125 C 23.78125 23.953125 23.609375 23.875 23.492188 23.738281 L 20.074219 19.785156 C 19.539062 19.167969 20.480469 18.359375 21.015625 18.976562 L 23.960938 22.386719 L 26.910156 18.976562 C 27.445312 18.359375 28.382812 19.167969 27.851562 19.785156 L 24.433594 23.738281 C 24.316406 23.875 24.144531 23.953125 23.960938 23.953125 Z M 23.960938 23.953125 " fill-opacity="1" fill-rule="evenodd"/><path fill="#000000" d="M 41.0625 27.460938 C 40.671875 27.460938 35.828125 24.546875 35.09375 24.121094 C 34.902344 24.011719 34.785156 23.808594 34.785156 23.585938 L 34.785156 17.085938 C 34.785156 16.273438 36.023438 16.273438 36.023438 17.085938 L 36.023438 23.230469 L 41.371094 26.304688 C 41.917969 26.621094 41.691406 27.460938 41.0625 27.460938 Z M 41.0625 27.460938 " fill-opacity="1" fill-rule="evenodd"/></svg>