<svg xmlns="http://www.w3.org/2000/svg" xmlns:xlink="http://www.w3.org/1999/xlink" width="79" zoomAndPan="magnify" viewBox="0 0 75.75 75.749998" height="80" preserveAspectRatio="xMidYMid meet" version="1.0"><defs><clipPath id="03c4557df9"><path d="M 0 0 L 75.5 0 L 75.5 75.5 L 0 75.5 Z M 0 0 " clip-rule="nonzero"/></clipPath><clipPath id="b18765e6ca"><path d="M 36 0.683594 L 39 0.683594 L 39 6 L 36 6 Z M 36 0.683594 " clip-rule="nonzero"/></clipPath><clipPath id="0a18748566"><path d="M 69 36 L 75.28125 36 L 75.28125 39 L 69 39 Z M 69 36 " clip-rule="nonzero"/></clipPath><clipPath id="ae075fd374"><path d="M 37 70 L 40 70 L 40 75.4375 L 37 75.4375 Z M 37 70 " clip-rule="nonzero"/></clipPath><clipPath id="dc7bc4c44c"><path d="M 0.527344 37 L 6 37 L 6 40 L 0.527344 40 Z M 0.527344 37 " clip-rule="nonzero"/></clipPath></defs><g clip-path="url(#03c4557df9)"><path fill="#ffffff" d="M 0 0 L 75.5 0 L 75.5 75.5 L 0 75.5 Z M 0 0 " fill-opacity="1" fill-rule="nonzero"/></g><path fill="#166f61" d="M 52.8125 44.378906 C 52.746094 43.992188 52.871094 43.601562 53.152344 43.328125 L 63.609375 33.136719 C 64.4375 32.332031 64.726562 31.148438 64.371094 30.050781 C 64.015625 28.953125 63.082031 28.164062 61.9375 28 L 47.492188 25.902344 C 47.105469 25.84375 46.769531 25.601562 46.59375 25.25 L 40.132812 12.15625 C 39.625 11.121094 38.589844 10.476562 37.433594 10.476562 C 36.277344 10.476562 35.242188 11.121094 34.734375 12.15625 L 28.273438 25.25 C 28.097656 25.601562 27.761719 25.84375 27.375 25.902344 L 12.929688 28 C 11.785156 28.164062 10.851562 28.953125 10.496094 30.050781 C 10.140625 31.148438 10.429688 32.332031 11.257812 33.136719 L 21.714844 43.328125 C 21.992188 43.601562 22.121094 43.992188 22.054688 44.378906 L 19.585938 58.769531 C 19.390625 59.910156 19.851562 61.039062 20.785156 61.714844 C 21.3125 62.101562 21.929688 62.292969 22.550781 62.292969 C 23.03125 62.292969 23.511719 62.179688 23.957031 61.945312 L 36.878906 55.152344 C 37.226562 54.96875 37.640625 54.96875 37.988281 55.152344 L 50.910156 61.945312 C 51.929688 62.480469 53.148438 62.394531 54.082031 61.714844 C 55.015625 61.039062 55.476562 59.910156 55.277344 58.769531 Z M 53.011719 60.242188 C 52.636719 60.515625 52.167969 60.546875 51.757812 60.332031 L 38.835938 53.539062 C 37.957031 53.078125 36.910156 53.078125 36.03125 53.539062 L 23.109375 60.332031 C 22.699219 60.546875 22.230469 60.515625 21.855469 60.242188 C 21.480469 59.96875 21.304688 59.535156 21.382812 59.078125 L 23.851562 44.6875 C 24.019531 43.710938 23.695312 42.714844 22.984375 42.023438 L 12.53125 31.832031 C 12.199219 31.507812 12.085938 31.054688 12.230469 30.613281 C 12.371094 30.171875 12.730469 29.871094 13.191406 29.804688 L 27.640625 27.703125 C 28.621094 27.5625 29.464844 26.945312 29.90625 26.054688 L 36.367188 12.964844 C 36.570312 12.550781 36.96875 12.300781 37.433594 12.300781 C 37.894531 12.300781 38.292969 12.550781 38.5 12.964844 L 44.960938 26.054688 C 45.398438 26.945312 46.25 27.5625 47.230469 27.703125 L 61.675781 29.804688 C 62.136719 29.871094 62.496094 30.171875 62.636719 30.613281 C 62.78125 31.054688 62.667969 31.507812 62.335938 31.832031 L 51.882812 42.023438 C 51.171875 42.714844 50.847656 43.710938 51.015625 44.6875 L 53.484375 59.078125 C 53.5625 59.535156 53.382812 59.96875 53.011719 60.242188 Z M 53.011719 60.242188 " fill-opacity="1" fill-rule="nonzero"/><path fill="#166f61" d="M 22.433594 33.070312 C 22.078125 32.71875 21.5 32.722656 21.148438 33.085938 C 20.796875 33.445312 20.800781 34.023438 21.164062 34.375 L 22.492188 35.671875 C 22.671875 35.84375 22.898438 35.929688 23.128906 35.929688 C 23.367188 35.929688 23.601562 35.839844 23.78125 35.65625 C 24.132812 35.296875 24.125 34.71875 23.765625 34.367188 Z M 22.433594 33.070312 " fill-opacity="1" fill-rule="nonzero"/><path fill="#166f61" d="M 25.902344 37.722656 C 25.550781 38.082031 25.558594 38.660156 25.917969 39.011719 C 27.625 40.671875 28.398438 43.058594 27.996094 45.398438 L 26.871094 51.949219 C 26.785156 52.445312 27.121094 52.914062 27.617188 53 C 27.667969 53.007812 27.71875 53.011719 27.769531 53.011719 C 28.207031 53.011719 28.59375 52.699219 28.667969 52.257812 L 29.789062 45.710938 C 30.296875 42.777344 29.324219 39.785156 27.1875 37.703125 C 26.828125 37.351562 26.253906 37.363281 25.902344 37.722656 Z M 25.902344 37.722656 " fill-opacity="1" fill-rule="nonzero"/><g clip-path="url(#b18765e6ca)"><path fill="#166f61" d="M 37.433594 5.964844 C 37.9375 5.964844 38.34375 5.558594 38.34375 5.054688 L 38.34375 1.597656 C 38.34375 1.09375 37.9375 0.683594 37.433594 0.683594 C 36.929688 0.683594 36.523438 1.09375 36.523438 1.597656 L 36.523438 5.054688 C 36.523438 5.558594 36.929688 5.964844 37.433594 5.964844 Z M 37.433594 5.964844 " fill-opacity="1" fill-rule="nonzero"/></g><path fill="#166f61" d="M 60.890625 15.308594 C 61.125 15.308594 61.359375 15.21875 61.535156 15.042969 L 63.984375 12.597656 C 64.339844 12.242188 64.339844 11.664062 63.984375 11.308594 C 63.625 10.953125 63.050781 10.953125 62.695312 11.308594 L 60.246094 13.753906 C 59.890625 14.109375 59.890625 14.6875 60.246094 15.042969 C 60.425781 15.21875 60.660156 15.308594 60.890625 15.308594 Z M 60.890625 15.308594 " fill-opacity="1" fill-rule="nonzero"/><g clip-path="url(#0a18748566)"><path fill="#166f61" d="M 74.332031 36.679688 L 70.875 36.679688 C 70.371094 36.679688 69.964844 37.089844 69.964844 37.59375 C 69.964844 38.097656 70.371094 38.503906 70.875 38.503906 L 74.332031 38.503906 C 74.835938 38.503906 75.246094 38.097656 75.246094 37.59375 C 75.246094 37.089844 74.835938 36.679688 74.332031 36.679688 Z M 74.332031 36.679688 " fill-opacity="1" fill-rule="nonzero"/></g><path fill="#166f61" d="M 62.175781 60.40625 C 61.820312 60.050781 61.242188 60.050781 60.886719 60.40625 C 60.53125 60.761719 60.53125 61.339844 60.886719 61.695312 L 63.332031 64.140625 C 63.511719 64.320312 63.746094 64.410156 63.976562 64.410156 C 64.210938 64.410156 64.445312 64.320312 64.621094 64.140625 C 64.976562 63.785156 64.976562 63.210938 64.621094 62.851562 Z M 62.175781 60.40625 " fill-opacity="1" fill-rule="nonzero"/><g clip-path="url(#ae075fd374)"><path fill="#166f61" d="M 38.335938 70.121094 C 37.832031 70.121094 37.425781 70.53125 37.425781 71.035156 L 37.425781 74.492188 C 37.425781 74.996094 37.832031 75.402344 38.335938 75.402344 C 38.839844 75.402344 39.25 74.996094 39.25 74.492188 L 39.25 71.035156 C 39.25 70.53125 38.839844 70.121094 38.335938 70.121094 Z M 38.335938 70.121094 " fill-opacity="1" fill-rule="nonzero"/></g><path fill="#166f61" d="M 14.234375 61.046875 L 11.789062 63.492188 C 11.433594 63.847656 11.433594 64.425781 11.789062 64.78125 C 11.964844 64.957031 12.199219 65.046875 12.433594 65.046875 C 12.664062 65.046875 12.898438 64.957031 13.078125 64.78125 L 15.523438 62.335938 C 15.878906 61.980469 15.878906 61.402344 15.523438 61.046875 C 15.167969 60.691406 14.589844 60.691406 14.234375 61.046875 Z M 14.234375 61.046875 " fill-opacity="1" fill-rule="nonzero"/><g clip-path="url(#dc7bc4c44c)"><path fill="#166f61" d="M 4.894531 37.585938 L 1.4375 37.585938 C 0.933594 37.585938 0.527344 37.992188 0.527344 38.496094 C 0.527344 39 0.933594 39.40625 1.4375 39.40625 L 4.894531 39.40625 C 5.398438 39.40625 5.808594 39 5.808594 38.496094 C 5.808594 37.992188 5.398438 37.585938 4.894531 37.585938 Z M 4.894531 37.585938 " fill-opacity="1" fill-rule="nonzero"/></g><path fill="#166f61" d="M 13.59375 15.683594 C 13.773438 15.859375 14.003906 15.949219 14.238281 15.949219 C 14.472656 15.949219 14.703125 15.859375 14.882812 15.683594 C 15.238281 15.324219 15.238281 14.75 14.882812 14.394531 L 12.4375 11.949219 C 12.082031 11.589844 11.503906 11.589844 11.148438 11.949219 C 10.792969 12.304688 10.792969 12.878906 11.148438 13.234375 Z M 13.59375 15.683594 " fill-opacity="1" fill-rule="nonzero"/></svg>