<svg xmlns="http://www.w3.org/2000/svg" xmlns:xlink="http://www.w3.org/1999/xlink" width="91" zoomAndPan="magnify" viewBox="0 0 68.25 65.249999" height="87" preserveAspectRatio="xMidYMid meet" version="1.0"><defs><clipPath id="a65ebc4aa4"><path d="M 32 8.691406 L 35 8.691406 L 35 16 L 32 16 Z M 32 8.691406 " clip-rule="nonzero"/></clipPath><clipPath id="c60ef2c482"><path d="M 32 48 L 35 48 L 35 55.402344 L 32 55.402344 Z M 32 48 " clip-rule="nonzero"/></clipPath><clipPath id="1e9d253a81"><path d="M 53 22 L 61.320312 22 L 61.320312 27 L 53 27 Z M 53 22 " clip-rule="nonzero"/></clipPath><clipPath id="9da4eb909a"><path d="M 5.710938 37 L 14 37 L 14 42 L 5.710938 42 Z M 5.710938 37 " clip-rule="nonzero"/></clipPath></defs><g clip-path="url(#a65ebc4aa4)"><path fill="#010101" d="M 33.472656 15.53125 C 33.976562 15.53125 34.3125 15.195312 34.3125 14.6875 L 34.3125 9.535156 C 34.3125 9.027344 33.976562 8.691406 33.472656 8.691406 C 32.96875 8.691406 32.632812 9.027344 32.632812 9.535156 L 32.632812 14.773438 C 32.632812 15.195312 32.96875 15.53125 33.472656 15.53125 Z M 33.472656 15.53125 " fill-opacity="1" fill-rule="nonzero"/></g><g clip-path="url(#c60ef2c482)"><path fill="#010101" d="M 33.472656 48.476562 C 32.96875 48.476562 32.632812 48.816406 32.632812 49.320312 L 32.632812 54.558594 C 32.632812 55.066406 32.96875 55.402344 33.472656 55.402344 C 33.976562 55.402344 34.3125 55.066406 34.3125 54.558594 L 34.3125 49.320312 C 34.3125 48.816406 33.976562 48.476562 33.472656 48.476562 Z M 33.472656 48.476562 " fill-opacity="1" fill-rule="nonzero"/></g><path fill="#010101" d="M 49.738281 20.433594 L 54.433594 16.714844 C 54.769531 16.460938 54.855469 15.871094 54.601562 15.53125 C 54.351562 15.195312 53.765625 15.109375 53.429688 15.363281 L 48.734375 19.082031 C 48.398438 19.332031 48.3125 19.925781 48.566406 20.261719 C 48.816406 20.683594 49.320312 20.683594 49.738281 20.433594 Z M 49.738281 20.433594 " fill-opacity="1" fill-rule="nonzero"/><path fill="#010101" d="M 17.207031 43.578125 L 12.511719 47.210938 C 12.175781 47.464844 12.089844 48.054688 12.34375 48.390625 C 12.59375 48.730469 13.179688 48.816406 13.515625 48.5625 L 18.210938 44.84375 C 18.546875 44.589844 18.632812 44 18.378906 43.660156 C 18.128906 43.324219 17.625 43.324219 17.207031 43.578125 Z M 17.207031 43.578125 " fill-opacity="1" fill-rule="nonzero"/><path fill="#010101" d="M 49.738281 43.578125 C 49.402344 43.324219 48.816406 43.324219 48.566406 43.746094 C 48.3125 44.085938 48.3125 44.675781 48.734375 44.929688 L 53.429688 48.644531 C 53.765625 48.898438 54.351562 48.898438 54.601562 48.476562 C 54.855469 48.140625 54.855469 47.546875 54.433594 47.292969 Z M 49.738281 43.578125 " fill-opacity="1" fill-rule="nonzero"/><path fill="#010101" d="M 17.207031 20.433594 C 17.539062 20.683594 18.128906 20.683594 18.378906 20.261719 C 18.632812 19.925781 18.632812 19.332031 18.210938 19.082031 L 13.515625 15.363281 C 13.179688 15.109375 12.59375 15.109375 12.34375 15.53125 C 12.089844 15.953125 12.089844 16.460938 12.511719 16.714844 Z M 17.207031 20.433594 " fill-opacity="1" fill-rule="nonzero"/><path fill="#010101" d="M 41.773438 16.800781 C 42.191406 17.054688 42.695312 16.882812 42.949219 16.460938 L 45.546875 11.648438 C 45.796875 11.222656 45.632812 10.71875 45.210938 10.464844 C 44.792969 10.210938 44.289062 10.378906 44.039062 10.800781 L 41.4375 15.617188 C 41.1875 16.039062 41.355469 16.546875 41.773438 16.800781 Z M 41.773438 16.800781 " fill-opacity="1" fill-rule="nonzero"/><path fill="#010101" d="M 25.171875 47.210938 C 24.753906 46.957031 24.25 47.125 23.996094 47.546875 L 21.398438 52.363281 C 21.148438 52.785156 21.3125 53.292969 21.734375 53.542969 C 22.152344 53.796875 22.65625 53.628906 22.90625 53.207031 L 25.507812 48.390625 C 25.757812 47.96875 25.589844 47.464844 25.171875 47.210938 Z M 25.171875 47.210938 " fill-opacity="1" fill-rule="nonzero"/><path fill="#010101" d="M 60.386719 39.945312 L 54.265625 37.917969 C 53.847656 37.75 53.34375 38.003906 53.175781 38.425781 C 53.007812 38.847656 53.261719 39.355469 53.679688 39.523438 L 59.800781 41.550781 C 60.222656 41.71875 60.722656 41.464844 60.890625 41.042969 C 61.058594 40.621094 60.808594 40.113281 60.386719 39.945312 Z M 60.386719 39.945312 " fill-opacity="1" fill-rule="nonzero"/><path fill="#010101" d="M 6.554688 24.0625 L 12.675781 26.089844 C 13.097656 26.261719 13.601562 26.007812 13.769531 25.585938 C 13.933594 25.164062 13.683594 24.65625 13.265625 24.488281 L 7.144531 22.460938 C 6.722656 22.289062 6.222656 22.542969 6.054688 22.964844 C 5.886719 23.386719 6.136719 23.894531 6.554688 24.0625 Z M 6.554688 24.0625 " fill-opacity="1" fill-rule="nonzero"/><g clip-path="url(#1e9d253a81)"><path fill="#010101" d="M 53.34375 25.753906 C 53.511719 26.175781 53.933594 26.429688 54.433594 26.34375 L 60.640625 24.402344 C 61.058594 24.234375 61.3125 23.8125 61.226562 23.304688 C 61.058594 22.882812 60.640625 22.628906 60.136719 22.710938 L 53.933594 24.65625 C 53.429688 24.824219 53.175781 25.332031 53.34375 25.753906 Z M 53.34375 25.753906 " fill-opacity="1" fill-rule="nonzero"/></g><g clip-path="url(#9da4eb909a)"><path fill="#010101" d="M 13.601562 38.253906 C 13.433594 37.832031 13.011719 37.578125 12.511719 37.664062 L 6.390625 39.605469 C 5.96875 39.777344 5.71875 40.199219 5.800781 40.707031 C 5.96875 41.128906 6.390625 41.382812 6.890625 41.296875 L 13.097656 39.355469 C 13.515625 39.183594 13.769531 38.679688 13.601562 38.253906 Z M 13.601562 38.253906 " fill-opacity="1" fill-rule="nonzero"/></g><path fill="#010101" d="M 42.527344 47.632812 C 42.277344 47.210938 41.773438 47.039062 41.355469 47.292969 C 40.933594 47.546875 40.769531 48.054688 41.019531 48.476562 L 43.535156 53.292969 C 43.785156 53.714844 44.289062 53.882812 44.707031 53.628906 C 45.128906 53.375 45.296875 52.867188 45.042969 52.445312 Z M 42.527344 47.632812 " fill-opacity="1" fill-rule="nonzero"/><path fill="#010101" d="M 24.417969 16.378906 C 24.667969 16.800781 25.171875 16.96875 25.589844 16.714844 C 26.011719 16.460938 26.175781 15.953125 25.925781 15.53125 L 23.410156 10.71875 C 23.160156 10.296875 22.65625 10.125 22.238281 10.378906 C 21.816406 10.632812 21.648438 11.140625 21.902344 11.5625 Z M 24.417969 16.378906 " fill-opacity="1" fill-rule="nonzero"/><path fill="#010101" d="M 33.472656 20.683594 C 21.480469 20.683594 11.921875 30.992188 11.503906 31.414062 C 11.167969 31.75 11.167969 32.257812 11.503906 32.597656 C 11.921875 33.019531 21.480469 43.324219 33.472656 43.324219 C 45.464844 43.324219 55.023438 33.019531 55.441406 32.597656 C 55.777344 32.257812 55.777344 31.75 55.441406 31.414062 C 55.023438 30.992188 45.464844 20.683594 33.472656 20.683594 Z M 33.472656 41.632812 C 28.191406 41.632812 23.914062 37.328125 23.914062 32.003906 C 23.914062 26.683594 28.191406 22.375 33.472656 22.375 C 38.753906 22.375 43.03125 26.683594 43.03125 32.003906 C 43.03125 37.328125 38.753906 41.632812 33.472656 41.632812 Z M 25.675781 23.894531 C 23.578125 25.921875 22.238281 28.792969 22.238281 32.003906 C 22.238281 35.214844 23.578125 38.085938 25.675781 40.113281 C 19.554688 37.832031 14.859375 33.523438 13.347656 32.003906 C 14.859375 30.484375 19.554688 26.175781 25.675781 23.894531 Z M 41.269531 40.113281 C 43.367188 38.085938 44.707031 35.214844 44.707031 32.003906 C 44.707031 28.792969 43.367188 25.921875 41.269531 23.894531 C 47.390625 26.175781 52.085938 30.484375 53.597656 32.003906 C 52.085938 33.523438 47.390625 37.832031 41.269531 40.113281 Z M 41.269531 40.113281 " fill-opacity="1" fill-rule="nonzero"/><path fill="#010101" d="M 33.472656 25.585938 C 29.949219 25.585938 27.101562 28.457031 27.101562 32.003906 C 27.101562 35.550781 29.949219 38.425781 33.472656 38.425781 C 36.996094 38.425781 39.84375 35.550781 39.84375 32.003906 C 39.84375 28.457031 36.996094 25.585938 33.472656 25.585938 Z M 33.472656 36.734375 C 30.875 36.734375 28.777344 34.625 28.777344 32.003906 C 28.777344 29.386719 30.875 27.273438 33.472656 27.273438 C 36.070312 27.273438 38.167969 29.386719 38.167969 32.003906 C 38.167969 34.625 36.070312 36.734375 33.472656 36.734375 Z M 33.472656 36.734375 " fill-opacity="1" fill-rule="nonzero"/></svg>